<?xml version="1.0" encoding="utf-8"?>
<!-- Generator: Adobe Illustrator 16.0.0, SVG Export Plug-In . SVG Version: 6.00 Build 0)  -->
<!DOCTYPE svg PUBLIC "-//W3C//DTD SVG 1.1//EN" "http://www.w3.org/Graphics/SVG/1.1/DTD/svg11.dtd">
<svg version="1.1" id="icons" xmlns="http://www.w3.org/2000/svg" xmlns:xlink="http://www.w3.org/1999/xlink" x="0px" y="0px"
	 width="44px" height="34px" viewBox="0 0 44 34" enable-background="new 0 0 44 34" xml:space="preserve">
<g id="plant_1_">
	<path fill="none" stroke="#FFFFFF" stroke-width="2" stroke-linejoin="round" stroke-miterlimit="3" d="M21.999,33c0,0,4-4,4-14
		s-4-18-4-18s-4,8-4,18S21.999,33,21.999,33z"/>
	<path fill="none" stroke="#FFFFFF" stroke-width="2" stroke-linejoin="round" stroke-miterlimit="3" d="M25.027,32.485
		c0,0,4.95,0.707,10.606-4.95C41.291,21.879,43,15,43,15s-7.366,1.222-13.022,6.879C24.32,27.535,25.027,32.485,25.027,32.485z"/>
	<path fill="none" stroke="#FFFFFF" stroke-width="2" stroke-linejoin="round" stroke-miterlimit="3" d="M18.971,32.485
		c0,0-4.95,0.707-10.606-4.95C2.707,21.879,1,15,1,15s7.364,1.222,13.021,6.879C19.678,27.535,18.971,32.485,18.971,32.485z"/>
	
		<line fill="none" stroke="#FFFFFF" stroke-width="2" stroke-linecap="round" stroke-linejoin="round" stroke-miterlimit="3" x1="21.999" y1="33" x2="21.999" y2="15"/>
	
		<line fill="none" stroke="#FFFFFF" stroke-width="2" stroke-linecap="round" stroke-linejoin="round" stroke-miterlimit="3" x1="17.999" y1="32" x2="9.999" y2="23"/>
	
		<line fill="none" stroke="#FFFFFF" stroke-width="2" stroke-linecap="round" stroke-linejoin="round" stroke-miterlimit="3" x1="25.999" y1="32" x2="33.999" y2="23"/>
</g>
</svg>
